<?xml version="1.0" encoding="utf-8"?>
<!-- Generator: Adobe Illustrator 19.0.0, SVG Export Plug-In . SVG Version: 6.00 Build 0)  -->
<svg version="1.1" id="Capa_1" xmlns="http://www.w3.org/2000/svg" xmlns:xlink="http://www.w3.org/1999/xlink" x="0px" y="0px"
	 viewBox="-114 319 383 156" style="enable-background:new -114 319 383 156;" xml:space="preserve">
<style type="text/css">
	.st0{fill:url(#SVGID_1_);stroke:#23509F;stroke-miterlimit:10;}
	.st1{fill:url(#SVGID_2_);stroke:#23509F;stroke-miterlimit:10;}
	.st2{fill:url(#SVGID_3_);stroke:#23509F;stroke-miterlimit:10;}
</style>
<g>
	
		<linearGradient id="SVGID_1_" gradientUnits="userSpaceOnUse" x1="-88.9" y1="410.45" x2="26.5336" y2="410.45" gradientTransform="matrix(1 0 0 -1 0 796)">
		<stop  offset="0" style="stop-color:#0070B8"/>
		<stop  offset="0.285" style="stop-color:#0086C7"/>
		<stop  offset="0.5897" style="stop-color:#009AD2"/>
		<stop  offset="0.839" style="stop-color:#00A6D8"/>
		<stop  offset="1" style="stop-color:#00AADA"/>
	</linearGradient>
	<path class="st0" d="M-33.4,334.6c20.3,0,35.5,4.2,45.3,12.5c9.9,8.3,14.8,21.1,14.8,38.3c0,17.2-4.9,30-14.8,38.4
		c-9.9,8.4-25,12.6-45.3,12.6h-55.4V422h5.1c3.4,0,5.6-0.4,6.6-1.2c1.1-0.8,1.6-3.1,1.6-6.8v-0.7v-55.6c0-4-0.5-6.4-1.5-7.3
		s-3.3-1.4-6.9-1.4h-5v-14.4H-33.4z M-41.4,421.5h8c7.4,0,12.6-2.8,15.9-8.3c3.2-5.5,4.8-14.8,4.8-27.8s-1.6-22.3-4.8-27.8
		c-3.2-5.6-8.5-8.3-15.9-8.3h-8V421.5z"/>
	
		<linearGradient id="SVGID_2_" gradientUnits="userSpaceOnUse" x1="35.7567" y1="410.35" x2="161.0567" y2="410.35" gradientTransform="matrix(1 0 0 -1 0 796)">
		<stop  offset="0" style="stop-color:#0070B8"/>
		<stop  offset="0.285" style="stop-color:#0086C7"/>
		<stop  offset="0.5897" style="stop-color:#009AD2"/>
		<stop  offset="0.839" style="stop-color:#00A6D8"/>
		<stop  offset="1" style="stop-color:#00AADA"/>
	</linearGradient>
	<path class="st1" d="M145.3,401.5h15.6v2.7c0,11.7-2.4,20.5-7.3,26.5s-12.2,8.9-21.8,8.9c-5,0-9.9-0.7-14.5-2.2s-8.9-3.6-12.7-6.3
		c-4.8,2.9-9.9,5.1-15.2,6.4c-5.3,1.4-10.9,2.1-16.9,2.1c-11.5,0-20.5-2.7-27-8.2c-6.6-5.5-9.9-13-9.9-22.4c0-8.2,2.2-15.1,6.6-20.6
		c4.4-5.5,11.3-10.1,20.9-13.9c-2.1-3.6-3.6-7.1-4.7-10.3c-1-3.3-1.6-6.5-1.6-9.5c0-6.8,2.5-12.3,7.6-16.6c5-4.2,11.7-6.3,19.9-6.3
		c8.1,0,14.5,2,19.2,6c4.8,4,7.1,9.4,7.1,16.1c0,4.9-1.3,9.3-4,13.3s-6.8,7.8-12.5,11.4c2.9,5,5.9,9.7,9,14
		c3.2,4.3,6.4,8.2,9.8,11.6c2.9-3.4,5-6.1,6.3-8.3s1.9-4.1,1.9-5.7c0-1.2-0.6-2.1-1.8-2.7c-1.2-0.5-4.3-1-9.2-1.3V373h43.4v13.2
		c-4.4,0.4-7.9,1.2-10.3,2.5c-2.4,1.3-4.5,3.3-6.1,6c-0.2,0.4-0.8,1.4-1.6,2.9c-3.5,6.7-7.4,12.6-11.6,17.7c2.1,2.1,4,3.6,5.6,4.6
		c1.7,1,3.3,1.5,4.7,1.5c3.4,0,6.1-1.7,8-5s2.9-7.9,2.9-13.9v-1H145.3z M70.8,390.5c-2.5,2.2-4.3,4.5-5.5,6.7s-1.8,4.7-1.8,7.3
		c0,5.1,1.7,9.4,5.1,13c3.4,3.6,7.5,5.4,12.4,5.4c1.7,0,3.4-0.3,5.3-0.9c1.8-0.6,3.8-1.5,5.8-2.6c-2.8-2.6-5.9-6.2-9.3-10.7
		C79.4,404,75.4,398,70.8,390.5z M85,364.3c3.2-1.2,5.6-2.7,7.3-4.6c1.6-1.9,2.4-4.1,2.4-6.6c0-2.3-0.7-4.1-2-5.5
		c-1.4-1.4-3.1-2.1-5.2-2.1c-2.4,0-4.3,0.7-5.6,2.1c-1.3,1.4-2,3.3-2,5.9c0,1.6,0.4,3.3,1.3,5.1C81.9,360.3,83.2,362.1,85,364.3z"/>
	
		<linearGradient id="SVGID_3_" gradientUnits="userSpaceOnUse" x1="167" y1="409.05" x2="258.5" y2="409.05" gradientTransform="matrix(1 0 0 -1 0 796)">
		<stop  offset="0" style="stop-color:#0070B8"/>
		<stop  offset="0.285" style="stop-color:#0086C7"/>
		<stop  offset="0.5897" style="stop-color:#009AD2"/>
		<stop  offset="0.839" style="stop-color:#00A6D8"/>
		<stop  offset="1" style="stop-color:#00AADA"/>
	</linearGradient>
	<path class="st2" d="M211.8,357.6c0-4-0.5-6.4-1.5-7.3c-1-0.9-3.3-1.4-6.9-1.4h-5.7v-14.4h60.8V349h-4.7c-3.4,0-5.6,0.4-6.6,1.2
		s-1.6,3-1.6,6.7v0.7v44.6c0,7.5-0.7,13.3-2,17.3s-3.6,7.4-6.7,10.2c-3.6,3.3-8,5.7-13.3,7.3s-11.5,2.4-18.7,2.4
		c-11.3,0-20.4-2.7-27.4-8.1c-7-5.4-10.5-12.3-10.5-20.7c0-6.4,1.9-11.6,5.6-15.6c3.8-4,8.6-6,14.7-6c4.5,0,8,1.3,10.7,3.8
		c2.6,2.5,3.9,6,3.9,10.3c0,4.1-1.2,7.3-3.6,9.8s-5.5,3.7-9.3,3.7c-0.6,0-1.3,0-2-0.1s-1.4-0.2-2.2-0.3c1.2,2.5,2.9,4.3,4.9,5.6
		c2,1.2,4.4,1.9,7.2,1.9c5.6,0,9.5-1.5,11.6-4.6c2.2-3,3.3-9.1,3.3-18.3L211.8,357.6L211.8,357.6z"/>
</g>
<g>
	<path d="M-82.4,454.2v-1.6h5v3.7c-0.5,0.4-1.2,0.7-2.1,1c-0.9,0.3-1.8,0.4-2.8,0.4c-1.2,0-2.2-0.2-3.1-0.6s-1.6-1-2-1.8
		s-0.7-1.6-0.7-2.5c0-1,0.2-1.8,0.7-2.6c0.5-0.8,1.2-1.3,2.2-1.7c0.7-0.3,1.6-0.5,2.7-0.5c1.4,0,2.5,0.2,3.3,0.7s1.3,1.2,1.5,2
		l-2.3,0.4c-0.2-0.5-0.5-0.8-0.9-1.1c-0.4-0.3-1-0.4-1.7-0.4c-1,0-1.8,0.3-2.4,0.8c-0.6,0.5-0.9,1.3-0.9,2.3c0,1.1,0.3,1.9,0.9,2.5
		s1.4,0.8,2.4,0.8c0.5,0,1-0.1,1.5-0.2c0.5-0.2,0.9-0.3,1.3-0.6v-1.2H-82.4z"/>
	<path d="M-75.3,457.6v-9.3h4.9c1.2,0,2.1,0.1,2.7,0.3c0.6,0.2,1,0.5,1.3,0.9c0.3,0.4,0.5,0.9,0.5,1.5c0,0.7-0.3,1.3-0.8,1.7
		s-1.3,0.7-2.3,0.9c0.5,0.2,0.9,0.5,1.2,0.8c0.3,0.3,0.8,0.8,1.3,1.5l1.4,1.8h-2.8l-1.7-2c-0.6-0.7-1-1.2-1.2-1.4
		c-0.2-0.2-0.4-0.3-0.7-0.4c-0.2-0.1-0.6-0.1-1.2-0.1H-73v3.9H-75.3z M-73,452.2h1.7c1.1,0,1.8,0,2.1-0.1c0.3-0.1,0.5-0.2,0.6-0.4
		c0.2-0.2,0.2-0.4,0.2-0.7c0-0.3-0.1-0.6-0.3-0.8c-0.2-0.2-0.5-0.3-0.9-0.4c-0.2,0-0.7,0-1.7,0H-73V452.2z"/>
	<path d="M-63.8,448.3h2.3v5.1c0,0.8,0,1.3,0.1,1.6c0.1,0.4,0.3,0.7,0.7,0.9c0.4,0.2,0.9,0.3,1.5,0.3c0.7,0,1.1-0.1,1.5-0.3
		c0.3-0.2,0.5-0.5,0.6-0.8s0.1-0.8,0.1-1.6v-5.2h2.3v4.9c0,1.1-0.1,1.9-0.2,2.4c-0.1,0.5-0.4,0.9-0.7,1.2c-0.3,0.3-0.8,0.6-1.3,0.8
		s-1.3,0.3-2.2,0.3c-1.1,0-1.9-0.1-2.5-0.3c-0.6-0.2-1-0.5-1.3-0.8c-0.3-0.3-0.5-0.7-0.6-1c-0.2-0.5-0.2-1.3-0.2-2.4V448.3z"/>
	<path d="M-52.3,457.6v-9.3h3.7c1.4,0,2.3,0,2.7,0.1c0.7,0.1,1.2,0.4,1.6,0.9c0.4,0.5,0.7,1.1,0.7,1.8c0,0.6-0.1,1.1-0.4,1.4
		c-0.3,0.4-0.6,0.7-1,0.9c-0.4,0.2-0.8,0.4-1.2,0.4c-0.6,0.1-1.3,0.1-2.4,0.1H-50v3.5H-52.3z M-50,449.8v2.6h1.3
		c0.9,0,1.5,0,1.8-0.1c0.3-0.1,0.5-0.3,0.7-0.5s0.3-0.5,0.3-0.7c0-0.3-0.1-0.6-0.4-0.8s-0.6-0.4-0.9-0.4c-0.3,0-0.8-0.1-1.7-0.1H-50
		z"/>
	<path d="M-42.1,453c0-1,0.2-1.7,0.5-2.4c0.3-0.5,0.6-0.9,1.1-1.3c0.4-0.4,0.9-0.7,1.5-0.8c0.7-0.2,1.5-0.4,2.5-0.4
		c1.7,0,3,0.4,4,1.3c1,0.9,1.5,2,1.5,3.6c0,1.5-0.5,2.7-1.5,3.5c-1,0.9-2.3,1.3-4,1.3c-1.7,0-3-0.4-4-1.3
		C-41.6,455.6-42.1,454.5-42.1,453z M-39.8,452.9c0,1.1,0.3,1.9,0.9,2.4c0.6,0.5,1.4,0.8,2.3,0.8c0.9,0,1.7-0.3,2.3-0.8
		c0.6-0.5,0.9-1.4,0.9-2.4c0-1.1-0.3-1.9-0.9-2.4c-0.6-0.5-1.3-0.8-2.3-0.8c-1,0-1.7,0.3-2.3,0.8C-39.5,451-39.8,451.9-39.8,452.9z"
		/>
	<path d="M-24.8,448.3h4.2c0.9,0,1.7,0.1,2.2,0.2c0.7,0.2,1.2,0.4,1.7,0.9c0.5,0.4,0.8,0.9,1.1,1.5c0.2,0.6,0.4,1.3,0.4,2.2
		c0,0.8-0.1,1.4-0.4,2c-0.3,0.7-0.7,1.2-1.2,1.6c-0.4,0.3-0.9,0.6-1.6,0.7c-0.5,0.1-1.2,0.2-2,0.2h-4.3V448.3z M-22.5,449.8v6.2h1.7
		c0.6,0,1.1,0,1.4-0.1c0.4-0.1,0.7-0.2,0.9-0.4s0.4-0.5,0.6-0.9s0.2-1,0.2-1.7s-0.1-1.3-0.2-1.7c-0.2-0.4-0.4-0.7-0.7-0.9
		s-0.6-0.4-1.1-0.4c-0.3-0.1-1-0.1-1.9-0.1H-22.5z"/>
	<path d="M-13.3,457.6v-9.3h8.5v1.6H-11v2.1h5.7v1.6H-11v2.5h6.4v1.6H-13.3z"/>
	<path d="M9,454.2l2.2,0.6c-0.3,1-0.9,1.8-1.7,2.3c-0.8,0.5-1.8,0.7-3,0.7c-1.5,0-2.8-0.4-3.7-1.3c-1-0.8-1.5-2-1.5-3.5
		c0-1.6,0.5-2.8,1.5-3.6c1-0.9,2.3-1.3,3.9-1.3c1.4,0,2.5,0.3,3.4,1c0.5,0.4,0.9,1,1.2,1.7L9,451.3c-0.1-0.5-0.4-0.9-0.8-1.1
		s-0.9-0.4-1.6-0.4c-0.8,0-1.5,0.2-2.1,0.7c-0.5,0.5-0.8,1.3-0.8,2.4c0,1.2,0.3,2,0.8,2.5c0.5,0.5,1.2,0.8,2,0.8
		c0.6,0,1.1-0.2,1.6-0.5C8.5,455.3,8.9,454.8,9,454.2z"/>
	<path d="M12.8,453c0-1,0.2-1.7,0.5-2.4c0.3-0.5,0.6-0.9,1.1-1.3c0.4-0.4,0.9-0.7,1.5-0.8c0.7-0.2,1.5-0.4,2.5-0.4
		c1.7,0,3,0.4,4,1.3c1,0.9,1.5,2,1.5,3.6c0,1.5-0.5,2.7-1.5,3.5c-1,0.9-2.3,1.3-4,1.3c-1.7,0-3-0.4-4-1.3
		C13.3,455.6,12.8,454.5,12.8,453z M15.2,452.9c0,1.1,0.3,1.9,0.9,2.4c0.6,0.5,1.4,0.8,2.3,0.8c0.9,0,1.7-0.3,2.3-0.8
		c0.6-0.5,0.9-1.4,0.9-2.4c0-1.1-0.3-1.9-0.9-2.4c-0.6-0.5-1.3-0.8-2.3-0.8c-1,0-1.7,0.3-2.3,0.8C15.5,451,15.2,451.9,15.2,452.9z"
		/>
	<path d="M25.7,457.6v-9.3h2.2l4.7,6.2v-6.2h2.1v9.3h-2.3l-4.6-6.1v6.1H25.7z"/>
	<path d="M36.6,454.6l2.2-0.2c0.1,0.6,0.4,1.1,0.8,1.4c0.4,0.3,1,0.4,1.7,0.4c0.7,0,1.3-0.1,1.7-0.4c0.4-0.3,0.6-0.6,0.6-0.9
		c0-0.2-0.1-0.4-0.2-0.6s-0.4-0.3-0.8-0.4c-0.3-0.1-0.9-0.2-1.8-0.4c-1.2-0.3-2.1-0.6-2.6-0.9c-0.7-0.5-1.1-1.1-1.1-1.9
		c0-0.5,0.2-0.9,0.5-1.3c0.3-0.4,0.8-0.7,1.4-0.9c0.6-0.2,1.4-0.3,2.2-0.3c1.4,0,2.5,0.3,3.2,0.8s1.1,1.2,1.1,2.1l-2.3,0.1
		c-0.1-0.5-0.3-0.8-0.6-1s-0.8-0.3-1.5-0.3c-0.7,0-1.2,0.1-1.6,0.3c-0.2,0.1-0.4,0.3-0.4,0.6c0,0.2,0.1,0.4,0.3,0.6
		c0.3,0.2,1,0.4,2.1,0.6c1.1,0.2,2,0.4,2.5,0.7c0.5,0.2,1,0.5,1.3,0.9c0.3,0.4,0.5,0.9,0.5,1.5c0,0.5-0.2,1-0.5,1.5s-0.9,0.8-1.5,1
		c-0.7,0.2-1.5,0.3-2.5,0.3c-1.4,0-2.6-0.3-3.3-0.8C37.2,456.4,36.7,455.6,36.6,454.6z"/>
	<path d="M47.8,448.3h2.3v5.1c0,0.8,0,1.3,0.1,1.6c0.1,0.4,0.3,0.7,0.7,0.9c0.4,0.2,0.9,0.3,1.5,0.3c0.7,0,1.1-0.1,1.5-0.3
		c0.3-0.2,0.5-0.5,0.6-0.8s0.1-0.8,0.1-1.6v-5.2h2.3v4.9c0,1.1-0.1,1.9-0.2,2.4c-0.1,0.5-0.4,0.9-0.7,1.2c-0.3,0.3-0.8,0.6-1.3,0.8
		s-1.3,0.3-2.2,0.3c-1.1,0-1.9-0.1-2.5-0.3c-0.6-0.2-1-0.5-1.3-0.8c-0.3-0.3-0.5-0.7-0.6-1c-0.2-0.5-0.2-1.3-0.2-2.4V448.3z"/>
	<path d="M59.4,457.6v-9.3h2.3v7.7h5.7v1.6H59.4z"/>
	<path d="M70.5,457.6v-7.8h-3.4v-1.6h9.1v1.6h-3.4v7.8H70.5z"/>
	<path d="M76.9,453c0-1,0.2-1.7,0.5-2.4c0.3-0.5,0.6-0.9,1.1-1.3c0.4-0.4,0.9-0.7,1.5-0.8c0.7-0.2,1.5-0.4,2.5-0.4
		c1.7,0,3,0.4,4,1.3c1,0.9,1.5,2,1.5,3.6c0,1.5-0.5,2.7-1.5,3.5s-2.3,1.3-4,1.3c-1.7,0-3-0.4-4-1.3C77.4,455.6,76.9,454.5,76.9,453z
		 M79.2,452.9c0,1.1,0.3,1.9,0.9,2.4c0.6,0.5,1.4,0.8,2.3,0.8c0.9,0,1.7-0.3,2.3-0.8c0.6-0.5,0.9-1.4,0.9-2.4c0-1.1-0.3-1.9-0.9-2.4
		c-0.6-0.5-1.3-0.8-2.3-0.8c-0.9,0-1.7,0.3-2.3,0.8C79.5,451,79.2,451.9,79.2,452.9z"/>
	<path d="M89.8,457.6v-9.3h4.9c1.2,0,2.1,0.1,2.7,0.3s1,0.5,1.3,0.9s0.5,0.9,0.5,1.5c0,0.7-0.3,1.3-0.8,1.7s-1.3,0.7-2.3,0.9
		c0.5,0.2,0.9,0.5,1.2,0.8c0.3,0.3,0.8,0.8,1.3,1.5l1.4,1.8h-2.8l-1.7-2c-0.6-0.7-1-1.2-1.2-1.4c-0.2-0.2-0.4-0.3-0.7-0.4
		s-0.6-0.1-1.2-0.1h-0.5v3.9H89.8z M92.1,452.2h1.7c1.1,0,1.8,0,2.1-0.1c0.3-0.1,0.5-0.2,0.6-0.4c0.2-0.2,0.2-0.4,0.2-0.7
		c0-0.3-0.1-0.6-0.3-0.8c-0.2-0.2-0.5-0.3-0.9-0.4c-0.2,0-0.7,0-1.7,0h-1.8V452.2z"/>
	<path d="M101.3,457.6v-9.3h8.5v1.6h-6.2v2.1h5.7v1.6h-5.7v2.5h6.4v1.6H101.3z"/>
	<path d="M111.3,454.6l2.2-0.2c0.1,0.6,0.4,1.1,0.8,1.4c0.4,0.3,1,0.4,1.7,0.4c0.7,0,1.3-0.1,1.7-0.4c0.4-0.3,0.6-0.6,0.6-0.9
		c0-0.2-0.1-0.4-0.2-0.6c-0.2-0.2-0.4-0.3-0.8-0.4c-0.3-0.1-0.9-0.2-1.8-0.4c-1.2-0.3-2.1-0.6-2.6-0.9c-0.7-0.5-1.1-1.1-1.1-1.9
		c0-0.5,0.2-0.9,0.5-1.3c0.3-0.4,0.8-0.7,1.4-0.9s1.4-0.3,2.2-0.3c1.4,0,2.5,0.3,3.2,0.8c0.7,0.5,1.1,1.2,1.1,2.1L118,451
		c-0.1-0.5-0.3-0.8-0.6-1s-0.8-0.3-1.5-0.3c-0.7,0-1.2,0.1-1.6,0.3c-0.2,0.1-0.4,0.3-0.4,0.6c0,0.2,0.1,0.4,0.3,0.6
		c0.3,0.2,1,0.4,2.1,0.6c1.1,0.2,2,0.4,2.5,0.7s1,0.5,1.3,0.9c0.3,0.4,0.5,0.9,0.5,1.5c0,0.5-0.2,1-0.5,1.5s-0.9,0.8-1.5,1
		c-0.7,0.2-1.5,0.3-2.5,0.3c-1.4,0-2.6-0.3-3.3-0.8C111.9,456.4,111.5,455.6,111.3,454.6z"/>
	<path d="M127,448.3h4.2c1,0,1.7,0.1,2.2,0.2c0.7,0.2,1.2,0.4,1.7,0.9s0.8,0.9,1.1,1.5c0.2,0.6,0.4,1.3,0.4,2.2c0,0.8-0.1,1.4-0.4,2
		c-0.3,0.7-0.7,1.2-1.2,1.6c-0.4,0.3-0.9,0.6-1.6,0.7c-0.5,0.1-1.2,0.2-2,0.2H127V448.3z M129.3,449.8v6.2h1.7c0.6,0,1.1,0,1.4-0.1
		c0.4-0.1,0.7-0.2,0.9-0.4c0.2-0.2,0.4-0.5,0.6-0.9c0.2-0.4,0.2-1,0.2-1.7s-0.1-1.3-0.2-1.7c-0.2-0.4-0.4-0.7-0.7-0.9
		s-0.6-0.4-1.1-0.4c-0.3-0.1-1-0.1-1.9-0.1H129.3z"/>
	<path d="M138.5,448.3h2.3v5.1c0,0.8,0,1.3,0.1,1.6c0.1,0.4,0.3,0.7,0.7,0.9c0.4,0.2,0.9,0.3,1.5,0.3c0.7,0,1.1-0.1,1.5-0.3
		s0.5-0.5,0.6-0.8s0.1-0.8,0.1-1.6v-5.2h2.3v4.9c0,1.1-0.1,1.9-0.2,2.4c-0.1,0.5-0.4,0.9-0.7,1.2c-0.3,0.3-0.8,0.6-1.3,0.8
		s-1.3,0.3-2.2,0.3c-1.1,0-1.9-0.1-2.5-0.3c-0.6-0.2-1-0.5-1.3-0.8c-0.3-0.3-0.5-0.7-0.6-1c-0.2-0.5-0.2-1.3-0.2-2.4V448.3z"/>
	<path d="M160.3,457.6h-2.5l-1-2.1h-4.6l-0.9,2.1h-2.4l4.4-9.3h2.4L160.3,457.6z M156,453.9l-1.6-3.5l-1.5,3.5H156z"/>
	<path d="M161.5,457.6v-9.3h4.9c1.2,0,2.1,0.1,2.7,0.3s1,0.5,1.3,0.9s0.5,0.9,0.5,1.5c0,0.7-0.3,1.3-0.8,1.7s-1.3,0.7-2.3,0.9
		c0.5,0.2,0.9,0.5,1.2,0.8c0.3,0.3,0.8,0.8,1.3,1.5l1.4,1.8H169l-1.7-2c-0.6-0.7-1-1.2-1.2-1.4c-0.2-0.2-0.4-0.3-0.7-0.4
		s-0.6-0.1-1.2-0.1h-0.5v3.9H161.5z M163.8,452.2h1.7c1.1,0,1.8,0,2.1-0.1c0.3-0.1,0.5-0.2,0.6-0.4c0.2-0.2,0.2-0.4,0.2-0.7
		c0-0.3-0.1-0.6-0.3-0.8c-0.2-0.2-0.5-0.3-0.9-0.4c-0.2,0-0.7,0-1.7,0h-1.8V452.2z"/>
	<path d="M175.6,457.6v-7.8h-3.4v-1.6h9.1v1.6h-3.4v7.8H175.6z"/>
	<path d="M182.8,457.6v-9.3h8.5v1.6h-6.2v2.1h5.7v1.6h-5.7v2.5h6.4v1.6H182.8z"/>
	<path d="M200.5,457.6v-3.9l-4.2-5.4h2.7l2.7,3.7l2.6-3.7h2.7l-4.2,5.4v3.9H200.5z"/>
	<path d="M216.4,448.3h2.3v5.9c0,0.8-0.1,1.4-0.2,1.8c-0.2,0.5-0.6,1-1.2,1.3c-0.6,0.3-1.4,0.5-2.3,0.5c-1.1,0-2-0.3-2.6-0.8
		s-0.9-1.3-0.9-2.3l2.2-0.2c0,0.5,0.1,0.9,0.3,1.1c0.3,0.3,0.6,0.5,1.1,0.5c0.5,0,0.9-0.1,1.1-0.4c0.2-0.2,0.3-0.7,0.3-1.5V448.3z"
		/>
	<path d="M221.2,448.3h2.3v5.1c0,0.8,0,1.3,0.1,1.6c0.1,0.4,0.3,0.7,0.7,0.9c0.4,0.2,0.9,0.3,1.5,0.3c0.7,0,1.1-0.1,1.5-0.3
		s0.5-0.5,0.6-0.8s0.1-0.8,0.1-1.6v-5.2h2.3v4.9c0,1.1-0.1,1.9-0.2,2.4c-0.1,0.5-0.4,0.9-0.7,1.2c-0.3,0.3-0.8,0.6-1.3,0.8
		s-1.3,0.3-2.2,0.3c-1.1,0-1.9-0.1-2.5-0.3c-0.6-0.2-1-0.5-1.3-0.8c-0.3-0.3-0.5-0.7-0.6-1c-0.2-0.5-0.2-1.3-0.2-2.4V448.3z"/>
	<path d="M232.8,457.6v-9.3h2.3v7.7h5.7v1.6H232.8z"/>
	<path d="M242.4,457.6v-9.3h2.3v9.3H242.4z"/>
	<path d="M246.4,453c0-1,0.2-1.7,0.5-2.4c0.3-0.5,0.6-0.9,1.1-1.3s0.9-0.7,1.5-0.8c0.7-0.2,1.5-0.4,2.5-0.4c1.7,0,3,0.4,4,1.3
		c1,0.9,1.5,2,1.5,3.6c0,1.5-0.5,2.7-1.5,3.5s-2.3,1.3-4,1.3c-1.7,0-3-0.4-4-1.3S246.4,454.5,246.4,453z M248.8,452.9
		c0,1.1,0.3,1.9,0.9,2.4c0.6,0.5,1.4,0.8,2.3,0.8c0.9,0,1.7-0.3,2.3-0.8c0.6-0.5,0.9-1.4,0.9-2.4c0-1.1-0.3-1.9-0.9-2.4
		c-0.6-0.5-1.3-0.8-2.3-0.8c-0.9,0-1.7,0.3-2.3,0.8C249.1,451,248.8,451.9,248.8,452.9z"/>
</g>
</svg>
